<svg xmlns="http://www.w3.org/2000/svg" width="1200" height="760" viewBox="0 0 1200 760"><rect width="1200" height="760" fill="white"/><style>text{font-family:Arial,'Microsoft YaHei',sans-serif;fill:#111}.title{font-size:34px;font-weight:700;fill:#1f4e79}.head{font-size:22px;font-weight:700;fill:white}.attr{font-size:17px}.box{fill:#eef6ff;stroke:#1f4e79;stroke-width:3}.bar{fill:#1f4e79}.rel{fill:#fff7df;stroke:#9b6a00;stroke-width:3}.card{fill:#fafafa;stroke:#999;stroke-width:2}.cardn{font-size:16px}.c{font-size:20px;font-weight:700;fill:#a40000}.sig{font-size:16px;fill:#555}</style><text x="600" y="50" text-anchor="middle" class="title">影院管理系统 E-R 图</text><g transform="translate(50,95)"><rect class="box" width="275" height="230" rx="8"/><rect class="bar" width="275" height="42"/><text x="14" y="28" class="head">电影 movie</text><text x="16" y="68" class="attr">PK movie_ID</text><text x="16" y="96" class="attr">title,type,runtime</text><text x="16" y="124" class="attr">release_date</text><text x="16" y="152" class="attr">director,starring</text></g><g transform="translate(465,95)"><rect class="box" width="275" height="230" rx="8"/><rect class="bar" width="275" height="42"/><text x="14" y="28" class="head">排场 schedule</text><text x="16" y="68" class="attr">PK schedule_ID</text><text x="16" y="96" class="attr">date,time</text><text x="16" y="124" class="attr">price,number</text><text x="16" y="152" class="attr">FK movie_ID</text><text x="16" y="180" class="attr">FK hall_ID</text></g><g transform="translate(900,95)"><rect class="box" width="250" height="175" rx="8"/><rect class="bar" width="250" height="42"/><text x="14" y="28" class="head">放映厅 hall</text><text x="16" y="68" class="attr">PK hall_ID</text><text x="16" y="96" class="attr">mode</text><text x="16" y="124" class="attr">capacity,location</text></g><g transform="translate(50,470)"><rect class="box" width="275" height="140" rx="8"/><rect class="bar" width="275" height="42"/><text x="14" y="28" class="head">顾客 customer</text><text x="16" y="72" class="attr">PK c_ID</text><text x="16" y="100" class="attr">name,phone</text></g><g transform="translate(465,430)"><rect class="box" width="275" height="180" rx="8"/><rect class="bar" width="275" height="42"/><text x="14" y="28" class="head">电影票 ticket</text><text x="16" y="72" class="attr">PK ticket_ID</text><text x="16" y="100" class="attr">seat_num</text><text x="16" y="128" class="attr">FK c_ID</text><text x="16" y="156" class="attr">FK schedule_ID</text></g><polygon class="rel" points="395,180 440,215 395,250 350,215"/><text x="395" y="222" text-anchor="middle" font-size="20" font-weight="700">放映</text><line x1="325" y1="215" x2="350" y2="215" stroke="#222" stroke-width="3"/><line x1="440" y1="215" x2="465" y2="215" stroke="#222" stroke-width="3"/><text x="332" y="205" class="c">1</text><text x="452" y="205" class="c">N</text><polygon class="rel" points="820,180 865,215 820,250 775,215"/><text x="820" y="222" text-anchor="middle" font-size="20" font-weight="700">位于</text><line x1="740" y1="215" x2="775" y2="215" stroke="#222" stroke-width="3"/><line x1="865" y1="215" x2="900" y2="215" stroke="#222" stroke-width="3"/><text x="748" y="205" class="c">N</text><text x="880" y="205" class="c">1</text><polygon class="rel" points="395,505 440,540 395,575 350,540"/><text x="395" y="547" text-anchor="middle" font-size="20" font-weight="700">购买</text><line x1="325" y1="540" x2="350" y2="540" stroke="#222" stroke-width="3"/><line x1="440" y1="540" x2="465" y2="540" stroke="#222" stroke-width="3"/><text x="332" y="530" class="c">1</text><text x="452" y="530" class="c">N</text><polygon class="rel" points="602,345 650,380 602,415 554,380"/><text x="602" y="387" text-anchor="middle" font-size="20" font-weight="700">属于</text><line x1="602" y1="430" x2="602" y2="415" stroke="#222" stroke-width="3"/><line x1="602" y1="345" x2="602" y2="325" stroke="#222" stroke-width="3"/><text x="610" y="425" class="c">N</text><text x="610" y="342" class="c">1</text><rect x="860" y="460" width="290" height="120" rx="8" class="card"/><text x="880" y="492" class="cardn">说明: customer 1:N ticket</text><text x="880" y="520" class="cardn">schedule 1:N ticket</text><text x="880" y="548" class="cardn">movie 1:N schedule; hall 1:N schedule</text><text x="820" y="700" class="sig">电子签名: 17498  日期: 2026-06-26</text></svg>
